<?xml version="1.0" encoding="utf-8"?>
<!-- Generator: Adobe Illustrator 16.0.0, SVG Export Plug-In . SVG Version: 6.00 Build 0)  -->
<!DOCTYPE svg PUBLIC "-//W3C//DTD SVG 1.1//EN" "http://www.w3.org/Graphics/SVG/1.1/DTD/svg11.dtd">
<svg version="1.1" id="svg3010" xmlns:svg="http://www.w3.org/2000/svg"
	 xmlns="http://www.w3.org/2000/svg" xmlns:xlink="http://www.w3.org/1999/xlink" x="0px" y="0px" width="243px" height="353px"
	 viewBox="154.5 44.5 243 353" enable-background="new 154.5 44.5 243 353" xml:space="preserve">
<path id="path4097" fill="#FFFFFF" d="M285.54,59.438c-2.326-0.968-4.644-1.933-6.98-2.878
	c-22.464,53.051-44.405,106.342-66.611,159.5c-11.639,28.258-23.685,56.351-35.034,84.717c9.578,3.975,19.118,8.042,28.713,11.948
	c1.964-3.997,3.753-8.114,5.481-12.261l0.778-1.87l1.86,0.802c4.06,1.721,8.134,3.387,12.206,5.024
	c1.832-4.127,3.871-8.199,5.146-12.562l0.716-2.438l2.207,1.271c3.971,2.279,8.357,3.69,12.586,5.346
	c1.752-3.983,3.514-7.965,5.221-11.963l0.792-1.837l1.836,0.792c3.158,1.343,6.351,2.631,9.61,3.782l2.148,0.758l-1.035,2.034
	c-4.315,8.51-6.489,17.918-10.622,26.503c4.088,1.861,8.209,3.642,12.345,5.407l1.79,0.772l-0.725,1.81
	c-3.623,8.935-7.344,17.822-10.905,26.792c4.063,1.785,8.141,3.538,12.246,5.258l1.823,0.759l-0.736,1.833
	c-1.653,4.183-3.336,8.323-5.084,12.479c9.585,4.14,19.24,8.125,28.901,12.079c2.049-3.942,3.926-8.025,5.366-12.308l0.708-2.089
	l2.011,0.891c4.042,1.816,8.157,3.488,12.243,5.068c4.13-9.536,8.073-19.154,11.953-28.793c-4.071-1.826-8.16-3.589-12.263-5.347
	l-1.79-0.771l0.726-1.811c3.572-8.977,7.338-17.838,11.007-26.777c-4.063-1.868-8.194-3.678-12.393-5.291L309.8,305.3l0.885-1.934
	c1.57-3.378,3.052-6.778,4.46-10.194l0.768-1.847l1.847,0.769c18.442,7.636,36.852,15.304,55.377,22.771
	c4.095-9.506,8.104-19.049,11.904-28.677c-4.146-1.726-8.271-3.478-12.38-5.26l-1.79-0.772l0.726-1.811
	c1.664-4.167,3.358-8.332,5.107-12.469c-4.08-1.82-8.185-3.557-12.314-5.287l-1.822-0.758l0.734-1.833
	c1.666-4.13,3.338-8.251,4.968-12.394c-4.037-1.895-8.13-3.728-12.312-5.421l-1.88-0.755l0.778-1.869
	c1.723-4.166,3.432-8.327,5.117-12.493c-4.157-1.702-8.298-3.463-12.401-5.269l-1.782-0.796l0.749-1.8
	c1.685-4.08,3.341-8.145,4.91-12.254c-4.002-1.929-8.089-3.671-12.211-5.406l-1.824-0.759l0.736-1.833
	c1.66-4.174,3.337-8.327,5.084-12.479c-4.146-1.744-8.275-3.5-12.393-5.292l-1.745-0.753l0.661-1.783
	c1.577-4.208,3.143-8.441,4.864-12.599c-4.011-1.782-8.05-3.481-12.117-5.177l-1.8-0.749l0.702-1.82
	c1.616-4.169,3.289-8.343,5.052-12.466c-4.127-1.774-8.264-3.53-12.383-5.315l-1.745-0.753l0.661-1.783
	c1.562-4.213,3.227-8.384,4.955-12.56c-4.085-1.813-8.19-3.547-12.314-5.286l-1.823-0.759l0.736-1.833
	c1.69-4.133,3.384-8.275,5.009-12.429c-4.135-1.749-8.296-3.493-12.435-5.256l-1.791-0.772l0.726-1.81
	c1.683-4.151,3.389-8.316,5.107-12.47c-4.099-1.847-8.293-3.561-12.481-5.275l-1.823-0.759l0.735-1.833
	c1.706-4.173,3.365-8.368,4.91-12.579C290.184,61.382,287.865,60.406,285.54,59.438L285.54,59.438z"/>
<path id="path3022" fill="#1C1C1C" d="M278.555,56.57c4.672,1.89,9.322,3.835,13.954,5.795c-1.775,4.839-3.643,9.641-5.621,14.395
	c4.789,1.949,9.562,3.936,14.269,6.056c-1.966,4.75-3.931,9.499-5.847,14.258c-4.798-2.029-9.613-4.021-14.434-5.996
	c-27.924,67.004-55.631,134.088-83.569,201.076c4.731,2.034,9.473,4.018,14.271,5.895c1.924-4.756,3.91-9.476,5.927-14.192
	c4.79,1.896,9.759,3.486,14.115,6.295c-1.176,5.014-3.602,9.593-5.679,14.274c-4.686-1.886-9.377-3.782-14.025-5.782
	c-1.938,4.762-4.027,9.47-6.294,14.083c-9.596-3.906-19.131-7.981-28.709-11.956c11.348-28.367,23.402-56.451,35.041-84.709
	C234.158,162.904,256.091,109.621,278.555,56.57z"/>
<path id="path3024" fill="#1C1C1C" d="M295.31,97.075c4.736,2.024,9.492,4.025,14.236,6.031c-1.865,4.77-3.796,9.512-5.735,14.25
	c4.729,1.989,9.454,3.988,14.145,6.07c-1.962,4.74-3.937,9.485-5.671,14.331c4.711,2.058,9.448,4.05,14.171,6.081
	c-2.013,4.708-3.946,9.46-5.774,14.245c4.675,1.935,9.327,3.925,13.944,5.976c-1.962,4.74-3.739,9.557-5.544,14.362
	c4.689,2.06,9.418,4.049,14.146,6.038c-1.989,4.729-3.933,9.476-5.814,14.26c4.728,1.967,9.437,4.002,14.047,6.224
	c-1.806,4.729-3.703,9.42-5.651,14.101c4.688,2.091,9.411,4.089,14.16,6.032c-1.933,4.774-3.874,9.544-5.853,14.299
	c-4.901-1.758-9.688-3.793-14.434-5.919c1.975-4.746,3.971-9.493,5.949-14.248c-4.793-2.07-9.616-4.066-14.438-6.04
	c2.066-4.783,4.073-9.581,5.987-14.416c-4.759-1.97-9.526-3.942-14.285-5.912c1.986-4.773,3.988-9.53,5.979-14.29
	c-4.773-2.117-9.586-4.109-14.429-6.037c2.011-4.807,4.031-9.609,5.978-14.442c-4.755-1.979-9.522-3.952-14.282-5.921
	c1.93-4.818,3.942-9.602,5.881-14.417c-4.782-1.99-9.569-3.971-14.296-6.068c2.002-4.733,3.986-9.476,5.915-14.24
	c-4.713-2.026-9.454-3.988-14.202-5.931C291.286,106.643,293.298,101.859,295.31,97.075L295.31,97.075z"/>
<path id="path3028" fill="#1C1C1C" d="M354.116,239.376c4.817,1.853,9.483,4.044,14.15,6.234c-1.867,4.747-3.789,9.471-5.693,14.203
	c4.736,1.971,9.448,3.975,14.135,6.065c-2.003,4.733-3.953,9.5-5.845,14.28c4.701,2.055,9.437,4.057,14.182,6.031
	c-3.8,9.628-7.801,19.162-11.896,28.669c-19.136-7.714-38.173-15.635-57.228-23.519c-1.919,4.692-3.853,9.39-6.059,13.964
	c-4.901-1.758-9.688-3.814-14.474-5.85c3.85-9.641,7.847-19.221,11.959-28.741c19.189,7.844,38.266,15.987,57.438,23.866
	c2.059-4.764,4.057-9.564,5.977-14.387c-4.771-2.019-9.566-4.003-14.318-6.066c1.987-4.751,3.984-9.498,5.927-14.268
	c-4.718-2.019-9.467-3.983-14.223-5.907C349.99,249.032,352.007,244.185,354.116,239.376L354.116,239.376z"/>
<path id="path3032" fill="#1C1C1C" d="M258.289,267.003c4.766,1.95,9.517,3.938,14.261,5.944
	c-1.869,4.984-3.706,10.025-6.413,14.629c-4.614-1.509-9.072-3.418-13.522-5.323c-1.942,4.618-3.979,9.196-6,13.794
	c-4.797-1.878-9.819-3.394-14.156-6.248c0.943-5.077,3.42-9.679,5.467-14.362c4.775,1.955,9.54,3.938,14.303,5.92
	C254.205,276.557,256.202,271.755,258.289,267.003L258.289,267.003z"/>
<path id="path3034" fill="#1C1C1C" d="M266.137,287.576c5.126,1.504,9.991,3.713,14.864,5.85
	c-3.871,9.588-7.939,19.105-11.855,28.675c4.795,1.984,9.577,3.975,14.327,6.07c-3.929,9.521-7.997,18.984-11.81,28.565
	c9.531,4.139,19.33,7.686,28.68,12.236c-1.436,5.014-3.737,9.71-6.132,14.323c-9.664-3.955-19.308-7.925-28.893-12.065
	c1.996-4.747,3.935-9.508,5.811-14.305c-4.712-1.95-9.402-3.979-14.073-6.029c3.799-9.575,7.793-19.07,11.646-28.612
	c-4.73-2.012-9.449-4.051-14.129-6.182C259.034,306.835,261.096,296.569,266.137,287.576L266.137,287.576z"/>
<path id="path3036" fill="#1C1C1C" d="M309.862,305.305c4.865,1.764,9.595,3.883,14.304,6.049
	c-3.91,9.528-7.979,18.992-11.755,28.588c4.708,2.014,9.403,4.031,14.077,6.128c-3.882,9.639-7.817,19.254-11.947,28.79
	c-4.777-1.848-9.563-3.698-14.198-5.887c3.44-9.778,7.871-19.178,11.759-28.781c-4.767-2.104-9.586-4.086-14.371-6.12
	C301.716,324.465,305.617,314.802,309.862,305.305z"/>
</svg>
